<svg id="Layer_1" data-name="Layer 1" xmlns="http://www.w3.org/2000/svg" viewBox="0 0 374.93 406.08"><defs><style>.cls-1{fill:none;stroke:#000;stroke-miterlimit:10;stroke-width:4px;}</style></defs><path class="cls-1" d="M251.41,409.18a137.52,137.52,0,0,0,1.86,19.33A100.23,100.23,0,0,0,258,447.29c1.22,3.17,3.12,7.56,5.12,11.9s4.1,8.65,5.7,11.63c5,9.37,14,16.78,23.2,24s18.69,14.33,24.8,23c2.57,3.65,6.7,7,11.13,10.08s9.15,5.82,12.87,8.28a56,56,0,0,0,14.67,6.59,72.05,72.05,0,0,0,15.92,2.82c9.66.57,15.56.62,21.44.13s11.73-1.51,21.28-3.07a12.17,12.17,0,0,0,5.9-2.87,36.54,36.54,0,0,1,5.5-4.08,50.55,50.55,0,0,0,8.72-6.94,95.23,95.23,0,0,0,7.75-8.11c7.9-9.74,13-27,17.88-36.71s12.24-10.35,15.06-22.59c2.21-9.55,10.7-25.42,13.05-44.23s-8.5-25.53-9.28-35.3c-.59-7.32,4.23-25.9,4.79-28s1.08-4.2.38-11.52c-.77-8.09-2.71-10.54-5.18-12.86s-5.5-4.5-8.46-12.08c-1.71-4.36-1.94-8.94-2.39-13.41s-1.12-8.81-3.72-12.71a171.43,171.43,0,0,1-9.58-17,148.64,148.64,0,0,0-9.73-16.88c-8.46-12.15-19.95-21.34-32.83-28.69S384.85,215.84,370.85,211c-11.28-3.89-23-7.54-34.72-9.6s-23.64-2.54-35.32-.09c-9.31,1.95-25.34,4.57-33.87,9.26s-15.91,8.55-24.47,12.7c-4.41,2.15-12.67,2.28-16.94,4.71s-6.64,6.68-10.35,9.88-6,8.66-8.94,12.71-1.82,10.65-4.24,15.06c-6.16,11.23-7.57,22.63-11,35a164.68,164.68,0,0,0-5.8,37.9,93,93,0,0,0,.13,10.29c.27,3.42-4.1,9.06-3.12,12.35,1.08,3.67,2.25,11.52,3.76,15.06s4.52,9.4,5.18,13.17c1,5.85,3.48,6.14,2.7,12.09s6.39,9.4,7.65,15.21c.7,3.24,7.38,12.12,8.94,15.05s4.35,5.2,6.12,8c4.74,7.5-1,17.48,2.39,25.67s-1.35,9.7-1.1,18.57c.15,5.18-.85,11.48-1.76,16.59s-4,7.32-5.3,12.35a173.8,173.8,0,0,1-10.94,32.12c-5,10.84-6,12.38-15.88,19.06-4.71,3.19-17.56,5.89-22.94,7.76s-39.66,9.91-45.18,11.3" transform="translate(-115.39 -197.67)"/><path class="cls-1" d="M408,402.63c-.14,9.63,6.4,18.1,13.77,24.3,4,3.34,8.74,7.31,8.1,12.46-.75,6-8.71,9.36-9.06,15.43-.12,2.1.64,4.54-.78,6.09-1.22,1.34-3.4,1.14-5.05.41s-3.12-1.91-4.89-2.29" transform="translate(-115.39 -197.67)"/><path class="cls-1" d="M391.21,455.13a14.85,14.85,0,0,0-9.29,1.41" transform="translate(-115.39 -197.67)"/><path class="cls-1" d="M368.85,435.49c.51,2.28-2,4.15-4.23,4.61s-4.79.26-6.77,1.48c-2.56,1.58-3.3,5.19-2.26,8s3.46,4.91,6.08,6.39,5.48,2.44,8.15,3.81" transform="translate(-115.39 -197.67)"/><path class="cls-1" d="M295.21,293.05,345,288c7.49-.75,15.3-1.47,22.34,1.19,3.38,1.27,6.47,3.28,9.93,4.29,3.76,1.08,7.75.93,11.66.76l23.51-1c4.64-.2,9.37-.39,13.86.84s8.76,4.1,10.48,8.42" transform="translate(-115.39 -197.67)"/><path class="cls-1" d="M275.77,316.93c20.14,4.57,40.34-5.23,60.23-10.8,8.75-2.46,18-4.11,26.89-2,8.5,2,16.1,7.31,24.77,8.23,3.72.39,7.46-.05,11.2-.13,11.67-.24,23.1,3,34.32,6.26" transform="translate(-115.39 -197.67)"/><path class="cls-1" d="M293.27,338.72c5.92.32,11.34-3,16.72-5.44A68.49,68.49,0,0,1,349.71,328" transform="translate(-115.39 -197.67)"/><path class="cls-1" d="M411.72,335c2-3.64,6.37-5.29,10.48-6a38.38,38.38,0,0,1,32.24,10" transform="translate(-115.39 -197.67)"/><path class="cls-1" d="M358.74,345.88c4.09-.56,8,3.76,7.11,7.79" transform="translate(-115.39 -197.67)"/><path class="cls-1" d="M415.91,346.43a15,15,0,0,0-2.43,12.35" transform="translate(-115.39 -197.67)"/><path class="cls-1" d="M346.14,491.48c12.92-5,27.16.89,40.93,2.19,12.5,1.18,25.23-1.46,37.61.59" transform="translate(-115.39 -197.67)"/><path class="cls-1" d="M258,477a3.81,3.81,0,0,1,3.37,1.93,10.61,10.61,0,0,1,1.22,3.88c1.68,9.63,2.11,20.23-3.15,28.47" transform="translate(-115.39 -197.67)"/><path class="cls-1" d="M262.14,540.6a83,83,0,0,0-12.53,6.13,17.79,17.79,0,0,0-3.65,2.66,23.91,23.91,0,0,0-2.7,3.61c-1.15,1.73-2.37,3.39-3.6,5.06a45.33,45.33,0,0,1-6.72,7.82,15.34,15.34,0,0,1-9.3,4" transform="translate(-115.39 -197.67)"/><path class="cls-1" d="M354.35,553.66a14.4,14.4,0,0,0,11,14.27" transform="translate(-115.39 -197.67)"/><path class="cls-1" d="M358.64,590.42a27.66,27.66,0,0,0-14.26-3,4,4,0,0,0-2.38.7,3.76,3.76,0,0,0-1,1.59c-1,2.42-1.42,5-2.56,7.4s-3.24,4.5-5.85,4.6a9.85,9.85,0,0,1-3.21-.59l-9-2.74a3.55,3.55,0,0,1-1.29-.6c-1.18-1-.55-3-1-4.45-.54-1.91-2.69-2.8-4.57-3.43-4.16-1.39-8.34-4.18-12.71-3.85a6.24,6.24,0,0,0-6.16-1" transform="translate(-115.39 -197.67)"/><path class="cls-1" d="M393.32,545.23c-1.12,3.8-1.76,8-.3,11.67s4.59,6.13,7.94,8c9.47,5.22,20.77,5.82,31.57,5.29s21.65-2.09,32.37-.71A59.88,59.88,0,0,1,488.82,578" transform="translate(-115.39 -197.67)"/><path class="cls-1" d="M321.73,361.94a91.53,91.53,0,0,0,10.43,2.9c7.46,1.61,15.71,2.55,21.06,8,1.42,1.45,2.62,3.43,2.18,5.42-.38,1.73-1.92,3-3.47,3.81a18.8,18.8,0,0,1-10.2,2.27c-2.29-.14-4.53-.71-6.81-.95-8.16-.85-13.39,1.82-21.16-.79-3-1-9.24-2.83-8.95-5.95.4-4.31.86-10.89,4.6-13.06A15,15,0,0,1,321.73,361.94Z" transform="translate(-115.39 -197.67)"/><path class="cls-1" d="M421.62,373.61a11.3,11.3,0,0,0-4.35,5.19,7.71,7.71,0,0,0,5.73,9.7,44.11,44.11,0,0,0,10.08.21c3.5-.18,7.31-.41,10.39,1.28,5.61,3.1,13.93,3.93,12.79-4.94-.53-4.17-1.27-8.91-3.91-12.24C445.7,364.42,428.77,368.48,421.62,373.61Z" transform="translate(-115.39 -197.67)"/><path d="M328.08,363.68a5.58,5.58,0,0,0-6.52,3.42,34.37,34.37,0,0,0-1.68,9.66v2a5.17,5.17,0,0,0,5,5.13l16.26.39a4.87,4.87,0,0,0,5-4.88v-6a6.81,6.81,0,0,0-4.84-6.25Z" transform="translate(-115.39 -197.67)"/><path class="cls-1" d="M328.08,363.68a5.58,5.58,0,0,0-6.52,3.42,34.37,34.37,0,0,0-1.68,9.66v2a5.17,5.17,0,0,0,5,5.13l16.26.39a4.87,4.87,0,0,0,5-4.88v-6a6.81,6.81,0,0,0-4.84-6.25Z" transform="translate(-115.39 -197.67)"/><path d="M442.39,368.45c-2.17-.23-4.57.4-5.34,1.39s-1.74,4-2.15,6.75l-1.08,7.17a5.32,5.32,0,0,0,4.16,5.92l3.89.77c2.69.54,5.6-.48,6.46-2.27a8.54,8.54,0,0,1,4.62-4.09c1.68-.47,2.32-3,1.41-5.57l-.35-1c-.91-2.6-3-5.61-4.67-6.7A18.38,18.38,0,0,0,442.39,368.45Z" transform="translate(-115.39 -197.67)"/></svg>