<svg width="438" height="444" viewBox="0 0 438 444" fill="none" xmlns="http://www.w3.org/2000/svg">
<rect width="438" height="444" fill="white"/>
<g clip-path="url(#clip0_9_26)">
<path d="M168.02 230.51C168.184 236.989 168.805 243.448 169.88 249.84C170.847 256.238 172.431 262.527 174.61 268.62C175.83 271.79 177.73 276.18 179.73 280.52C181.73 284.86 183.83 289.17 185.43 292.15C190.43 301.52 199.43 308.93 208.63 316.15C217.83 323.37 227.32 330.48 233.43 339.15C236 342.8 240.13 346.15 244.56 349.23C248.99 352.31 253.71 355.05 257.43 357.51C261.977 360.401 266.918 362.62 272.1 364.1C277.284 365.634 282.624 366.58 288.02 366.92C297.68 367.49 303.58 367.54 309.46 367.05C315.34 366.56 321.19 365.54 330.74 363.98C332.932 363.581 334.973 362.589 336.64 361.11C338.342 359.581 340.183 358.215 342.14 357.03C345.294 355.045 348.218 352.717 350.86 350.09C353.6 347.541 356.188 344.833 358.61 341.98C366.51 332.24 371.61 314.98 376.49 305.27C381.37 295.56 388.73 294.92 391.55 282.68C393.76 273.13 402.25 257.26 404.6 238.45C406.95 219.64 396.1 212.92 395.32 203.15C394.73 195.83 399.55 177.25 400.11 175.15C400.67 173.05 401.19 170.95 400.49 163.63C399.72 155.54 397.78 153.09 395.31 150.77C392.84 148.45 389.81 146.27 386.85 138.69C385.14 134.33 384.91 129.75 384.46 125.28C384.01 120.81 383.34 116.47 380.74 112.57C377.226 107.09 374.028 101.414 371.16 95.5698C368.289 89.7364 365.039 84.0976 361.43 78.6898C352.97 66.5398 341.48 57.3498 328.6 49.9998C315.72 42.6498 301.46 37.1698 287.46 32.3298C276.18 28.4398 264.46 24.7898 252.74 22.7298C241.02 20.6698 229.1 20.1898 217.42 22.6398C208.11 24.5898 192.08 27.2098 183.55 31.8998C175.02 36.5898 167.64 40.4498 159.08 44.5998C154.67 46.7498 146.41 46.8798 142.14 49.3098C137.87 51.7398 135.5 55.9898 131.79 59.1898C128.08 62.3898 125.79 67.8498 122.85 71.8998C119.91 75.9498 121.03 82.5498 118.61 86.9598C112.45 98.1898 111.04 109.59 107.61 121.96C104.208 134.324 102.261 147.044 101.81 159.86C101.663 163.29 101.707 166.725 101.94 170.15C102.21 173.57 97.84 179.21 98.82 182.5C99.9 186.17 101.07 194.02 102.58 197.56C104.09 201.1 107.1 206.96 107.76 210.73C108.76 216.58 111.24 216.87 110.46 222.82C109.68 228.77 116.85 232.22 118.11 238.03C118.81 241.27 125.49 250.15 127.05 253.08C128.61 256.01 131.4 258.28 133.17 261.08C137.91 268.58 132.17 278.56 135.56 286.75C138.95 294.94 134.21 296.45 134.46 305.32C134.61 310.5 133.61 316.8 132.7 321.91C131.79 327.02 128.7 329.23 127.4 334.26C124.81 345.298 121.146 356.056 116.46 366.38C111.46 377.22 110.46 378.76 100.58 385.44C95.87 388.63 83.02 391.33 77.64 393.2C72.26 395.07 37.98 403.11 32.46 404.5" stroke="black" stroke-width="4" stroke-miterlimit="10"/>
<path d="M324.61 223.96C324.47 233.59 331.01 242.06 338.38 248.26C342.38 251.6 347.12 255.57 346.48 260.72C345.73 266.72 337.77 270.08 337.42 276.15C337.3 278.25 338.06 280.69 336.64 282.24C335.42 283.58 333.24 283.38 331.59 282.65C329.94 281.92 328.47 280.74 326.7 280.36" stroke="black" stroke-width="4" stroke-miterlimit="10"/>
<path d="M307.82 276.46C304.653 275.912 301.393 276.407 298.53 277.87" stroke="black" stroke-width="4" stroke-miterlimit="10"/>
<path d="M285.46 256.82C285.97 259.1 283.46 260.97 281.23 261.43C279 261.89 276.44 261.69 274.46 262.91C271.9 264.49 271.16 268.1 272.2 270.91C273.24 273.72 275.66 275.82 278.28 277.3C280.9 278.78 283.76 279.74 286.43 281.11" stroke="black" stroke-width="4" stroke-miterlimit="10"/>
<path d="M211.82 114.38L261.61 109.33C269.1 108.58 276.91 107.86 283.95 110.52C287.33 111.79 290.42 113.8 293.88 114.81C297.64 115.89 301.63 115.74 305.54 115.57L329.05 114.57C333.69 114.37 338.42 114.18 342.91 115.41C347.4 116.64 351.67 119.51 353.39 123.83" stroke="black" stroke-width="4" stroke-miterlimit="10"/>
<path d="M192.38 138.26C212.52 142.83 232.72 133.03 252.61 127.46C261.36 125 270.61 123.35 279.5 125.46C288 127.46 295.6 132.77 304.27 133.69C307.99 134.08 311.73 133.64 315.47 133.56C327.14 133.32 338.57 136.56 349.79 139.82" stroke="black" stroke-width="4" stroke-miterlimit="10"/>
<path d="M209.88 160.05C215.8 160.37 221.22 157.05 226.6 154.61C239.017 148.93 252.85 147.091 266.32 149.33" stroke="black" stroke-width="4" stroke-miterlimit="10"/>
<path d="M328.33 156.33C330.33 152.69 334.7 151.04 338.81 150.33C344.591 149.429 350.501 149.862 356.088 151.595C361.676 153.329 366.794 156.316 371.05 160.33" stroke="black" stroke-width="4" stroke-miterlimit="10"/>
<path d="M275.35 167.21C279.44 166.65 283.35 170.97 282.46 175" stroke="black" stroke-width="4" stroke-miterlimit="10"/>
<path d="M332.52 167.76C331.245 169.519 330.367 171.535 329.947 173.668C329.528 175.8 329.576 177.998 330.09 180.11" stroke="black" stroke-width="4" stroke-miterlimit="10"/>
<path d="M262.75 312.81C275.67 307.81 289.91 313.7 303.68 315C316.18 316.18 328.91 313.54 341.29 315.59" stroke="black" stroke-width="4" stroke-miterlimit="10"/>
<path d="M174.61 298.33C175.294 298.32 175.967 298.494 176.56 298.833C177.153 299.173 177.643 299.666 177.98 300.26C178.633 301.463 179.048 302.78 179.2 304.14C180.88 313.77 181.31 324.37 176.05 332.61" stroke="black" stroke-width="4" stroke-miterlimit="10"/>
<path d="M178.75 361.93C174.409 363.618 170.217 365.669 166.22 368.06C164.895 368.788 163.669 369.682 162.57 370.72C161.558 371.836 160.654 373.045 159.87 374.33C158.72 376.06 157.5 377.72 156.27 379.39C154.335 382.244 152.08 384.868 149.55 387.21C146.992 389.558 143.713 390.968 140.25 391.21" stroke="black" stroke-width="4" stroke-miterlimit="10"/>
<path d="M270.96 374.99C270.897 378.265 271.952 381.463 273.952 384.058C275.952 386.652 278.777 388.487 281.96 389.26" stroke="black" stroke-width="4" stroke-miterlimit="10"/>
<path d="M275.25 411.75C270.85 409.493 265.926 408.458 260.99 408.75C260.142 408.725 259.309 408.97 258.61 409.45C258.147 409.887 257.803 410.434 257.61 411.04C256.61 413.46 256.19 416.04 255.05 418.44C253.91 420.84 251.81 422.94 249.2 423.04C248.104 423.023 247.02 422.824 245.99 422.45L236.99 419.71C236.524 419.599 236.085 419.395 235.7 419.11C234.52 418.11 235.15 416.11 234.7 414.66C234.16 412.75 232.01 411.86 230.13 411.23C225.97 409.84 221.79 407.05 217.42 407.38C216.571 406.687 215.555 406.23 214.474 406.055C213.392 405.879 212.284 405.991 211.26 406.38" stroke="black" stroke-width="4" stroke-miterlimit="10"/>
<path d="M309.93 366.56C308.81 370.36 308.17 374.56 309.63 378.23C311.09 381.9 314.22 384.36 317.57 386.23C327.04 391.45 338.34 392.05 349.14 391.52C359.94 390.99 370.79 389.43 381.51 390.81C390 391.907 398.157 394.813 405.43 399.33" stroke="black" stroke-width="4" stroke-miterlimit="10"/>
<path d="M238.34 183.27C241.756 184.442 245.239 185.41 248.77 186.17C256.23 187.78 264.48 188.72 269.83 194.17C271.25 195.62 272.45 197.6 272.01 199.59C271.63 201.32 270.09 202.59 268.54 203.4C265.423 205.105 261.886 205.892 258.34 205.67C256.05 205.53 253.81 204.96 251.53 204.72C243.37 203.87 238.14 206.54 230.37 203.93C227.37 202.93 221.13 201.1 221.42 197.98C221.82 193.67 222.28 187.09 226.02 184.92C227.836 183.78 229.876 183.043 232.001 182.759C234.126 182.474 236.288 182.648 238.34 183.27Z" stroke="black" stroke-width="4" stroke-miterlimit="10"/>
<path d="M338.23 194.94C336.283 196.184 334.765 197.996 333.88 200.13C333.582 201.143 333.496 202.207 333.627 203.256C333.757 204.304 334.102 205.314 334.639 206.224C335.176 207.133 335.895 207.923 336.75 208.543C337.605 209.163 338.578 209.601 339.61 209.83C342.951 210.285 346.333 210.355 349.69 210.04C353.19 209.86 357 209.63 360.08 211.32C365.69 214.42 374.01 215.25 372.87 206.38C372.34 202.21 371.6 197.47 368.96 194.14C362.31 185.75 345.38 189.81 338.23 194.94Z" stroke="black" stroke-width="4" stroke-miterlimit="10"/>
<path d="M244.69 185.01C243.373 184.691 241.986 184.863 240.786 185.492C239.586 186.121 238.657 187.166 238.17 188.43C237.151 191.553 236.586 194.806 236.49 198.09V200.09C236.5 201.425 237.026 202.705 237.958 203.661C238.89 204.618 240.156 205.176 241.49 205.22L257.75 205.61C258.401 205.627 259.05 205.514 259.656 205.276C260.263 205.039 260.816 204.682 261.282 204.227C261.748 203.772 262.118 203.228 262.37 202.627C262.623 202.027 262.752 201.381 262.75 200.73V194.73C262.694 193.314 262.197 191.951 261.33 190.831C260.462 189.711 259.267 188.889 257.91 188.48L244.69 185.01Z" fill="black"/>
<path d="M244.69 185.01C243.373 184.691 241.986 184.863 240.786 185.492C239.586 186.121 238.657 187.166 238.17 188.43C237.151 191.553 236.586 194.806 236.49 198.09V200.09C236.5 201.425 237.026 202.705 237.958 203.661C238.89 204.618 240.156 205.176 241.49 205.22L257.75 205.61C258.401 205.627 259.05 205.514 259.656 205.276C260.263 205.039 260.816 204.682 261.282 204.227C261.748 203.772 262.118 203.228 262.37 202.627C262.623 202.027 262.752 201.381 262.75 200.73V194.73C262.694 193.314 262.197 191.951 261.33 190.831C260.462 189.711 259.267 188.889 257.91 188.48L244.69 185.01Z" stroke="black" stroke-width="4" stroke-miterlimit="10"/>
<path d="M359 189.78C356.83 189.55 354.43 190.18 353.66 191.17C352.89 192.16 351.92 195.17 351.51 197.92L350.43 205.09C350.25 206.419 350.578 207.768 351.349 208.866C352.12 209.964 353.278 210.729 354.59 211.01L358.48 211.78C361.17 212.32 364.08 211.3 364.94 209.51C365.917 207.618 367.565 206.16 369.56 205.42C371.24 204.95 371.88 202.42 370.97 199.85L370.62 198.85C369.71 196.25 367.62 193.24 365.95 192.15C363.817 190.9 361.453 190.094 359 189.78Z" fill="black"/>
</g>
<defs>
<clipPath id="clip0_9_26">
<rect width="374.93" height="406.08" fill="white" transform="translate(32 19)"/>
</clipPath>
</defs>
</svg>
