<svg width="26" height="24" viewBox="0 0 26 24" fill="none" xmlns="http://www.w3.org/2000/svg">
<path d="M2.75195 3H4.17232C4.69496 3 5.15099 3.343 5.28627 3.835L5.67876 5.272M5.67876 5.272C11.3875 5.11589 17.0908 5.73515 22.6247 7.112C21.7803 9.566 20.777 11.95 19.6283 14.25H8.13212M5.67876 5.272L8.13212 14.25M8.13212 14.25C7.31674 14.25 6.53476 14.5661 5.9582 15.1287C5.38165 15.6913 5.05774 16.4544 5.05774 17.25H21.1982M6.59493 20.25C6.59493 20.4489 6.51395 20.6397 6.36981 20.7803C6.22567 20.921 6.03018 21 5.82633 21C5.62249 21 5.42699 20.921 5.28285 20.7803C5.13871 20.6397 5.05774 20.4489 5.05774 20.25C5.05774 20.0511 5.13871 19.8603 5.28285 19.7197C5.42699 19.579 5.62249 19.5 5.82633 19.5C6.03018 19.5 6.22567 19.579 6.36981 19.7197C6.51395 19.8603 6.59493 20.0511 6.59493 20.25ZM19.661 20.25C19.661 20.4489 19.5801 20.6397 19.4359 20.7803C19.2918 20.921 19.0963 21 18.8924 21C18.6886 21 18.4931 20.921 18.349 20.7803C18.2048 20.6397 18.1239 20.4489 18.1239 20.25C18.1239 20.0511 18.2048 19.8603 18.349 19.7197C18.4931 19.579 18.6886 19.5 18.8924 19.5C19.0963 19.5 19.2918 19.579 19.4359 19.7197C19.5801 19.8603 19.661 20.0511 19.661 20.25Z" stroke="#FFFCF9" stroke-width="1.5" stroke-linecap="round" stroke-linejoin="round"/>
</svg>
